<svg width="18" height="17" viewBox="0 0 18 17" fill="none" xmlns="http://www.w3.org/2000/svg">
<path d="M18 10.7037L15.8341 6.29619L13.6682 10.7037H15.127C14.2087 13.6205 11.5229 15.7407 8.35412 15.7407C4.43014 15.7407 1.23731 12.4924 1.23731 8.49994C1.23731 4.50763 4.43014 1.25919 8.35412 1.25919C11.3776 1.25919 13.9607 3.19079 14.9893 5.90279L15.7006 4.45527C14.2854 1.80395 11.5235 2.48346e-09 8.35467 2.48346e-09C3.74804 -0.000112365 0 3.81297 0 8.49994C0 13.1866 3.74804 17 8.35456 17C12.2117 17 15.4596 14.3246 16.4167 10.7038H18V10.7037Z" fill="#0B9FEE"/>
<path d="M4 10H4.77123L5.0053 9.23003H5.94647L6.20036 10H7L5.98077 7H5.0053L4 10ZM5.3073 8.08605C5.36097 7.91226 5.40975 7.68521 5.45863 7.50745H5.46821C5.51709 7.68521 5.57577 7.90849 5.63445 8.08605L5.83935 8.72327H5.11264L5.3073 8.08605Z" fill="#0B9FEE"/>
<path d="M8.93506 7.55011C9.3083 7.55011 9.54052 7.60685 9.72743 7.67605L9.8893 7.14405C9.72258 7.07446 9.38406 7 8.94498 7C7.82887 7 7.00607 7.5578 7.0001 8.5348C6.99536 8.96636 7.16693 9.34964 7.48031 9.60328C7.79347 9.86491 8.24269 10 8.86427 10C9.31293 10 9.76327 9.90413 10 9.83444V8.2866H8.73283V8.80547H9.2587V9.41991C9.19761 9.44658 9.05602 9.46362 8.87938 9.46362C8.24765 9.46362 7.8088 9.10573 7.8088 8.49966C7.8088 7.86371 8.29308 7.55011 8.93506 7.55011Z" fill="#0B9FEE"/>
<path d="M12.9347 7.55633V7H11V10H13V9.44416H11.7117V8.73181H12.8654V8.17925H11.7117V7.55633H12.9347Z" fill="#0B9FEE"/>
</svg>
