<svg width="115" height="115" viewBox="0 0 115 115" fill="none" xmlns="http://www.w3.org/2000/svg">
<circle cx="57.5" cy="57.5" r="52.5" fill="#E1E1E1" stroke="#09427D" stroke-width="10"/>
<circle cx="85" cy="95" r="10" fill="#00A911"/>
<path d="M65.5637 50.0549C65.2045 54.6745 61.5322 58.4431 57.5007 58.4431C53.4692 58.4431 49.7905 54.6754 49.4377 50.0549C49.0712 45.2491 52.6446 41.6666 57.5007 41.6666C62.3568 41.6666 65.9302 45.3365 65.5637 50.0549Z" stroke="#54C1FB" stroke-linecap="round" stroke-linejoin="round"/>
<path d="M57.4996 62.8714C49.5283 62.8714 41.4378 67.0655 39.9407 74.9819C39.7602 75.9361 40.3264 76.8518 41.3737 76.8518H73.6256C74.6738 76.8518 75.24 75.9361 75.0595 74.9819C73.5615 67.0655 65.471 62.8714 57.4996 62.8714Z" stroke="#54C1FB" stroke-miterlimit="10"/>
</svg>
