<svg width="20" height="12" viewBox="0 0 20 12" fill="none" xmlns="http://www.w3.org/2000/svg">
<path d="M19.3164 4.04297H18.8281V2.07031C18.8281 1.60723 18.4514 1.23047 17.9883 1.23047H16.7383C16.6498 1.23047 16.5645 1.24441 16.4844 1.26992V1.15234C16.4844 0.516953 15.9674 0 15.332 0H13.7695C13.1341 0 12.6172 0.516953 12.6172 1.15234V4.60121H7.38281V1.15234C7.38281 0.516953 6.86586 0 6.23047 0H4.66797C4.03258 0 3.51562 0.516953 3.51562 1.15234V1.26992C3.43547 1.24441 3.3502 1.23047 3.26172 1.23047H2.01172C1.54863 1.23047 1.17188 1.60723 1.17188 2.07031V2.44871C1.17188 2.61051 1.30305 2.74168 1.46484 2.74168C1.62664 2.74168 1.75781 2.61051 1.75781 2.44871V2.07031C1.75781 1.93031 1.87172 1.81641 2.01172 1.81641H3.26172C3.40172 1.81641 3.51562 1.93031 3.51562 2.07031V9.72656C3.51562 9.86656 3.40172 9.98047 3.26172 9.98047H2.01172C1.87172 9.98047 1.75781 9.86656 1.75781 9.72656V3.70231C1.75781 3.54051 1.62664 3.40934 1.46484 3.40934C1.30305 3.40934 1.17188 3.54051 1.17188 3.70231V4.04297H0.683594C0.30668 4.04297 0 4.34965 0 4.72656V7.07031C0 7.44723 0.30668 7.75391 0.683594 7.75391H1.17188V9.72656C1.17188 10.1896 1.54863 10.5664 2.01172 10.5664H3.26172C3.3502 10.5664 3.43547 10.5525 3.51562 10.527V10.6445C3.51562 11.2799 4.03258 11.7969 4.66797 11.7969H6.23047C6.86586 11.7969 7.38281 11.2799 7.38281 10.6445V7.19567H7.80922C7.97102 7.19567 8.10219 7.06449 8.10219 6.9027C8.10219 6.7409 7.97102 6.60973 7.80922 6.60973H7.38281V5.18715H12.6172V6.60973H9.07922C8.91742 6.60973 8.78625 6.7409 8.78625 6.9027C8.78625 7.06449 8.91742 7.19567 9.07922 7.19567H12.6172V10.6445C12.6172 11.2799 13.1341 11.7969 13.7695 11.7969H15.332C15.9674 11.7969 16.4844 11.2799 16.4844 10.6445V10.527C16.5645 10.5525 16.6498 10.5664 16.7383 10.5664H17.9883C18.4514 10.5664 18.8281 10.1896 18.8281 9.72656V9.33094C18.8281 9.16914 18.697 9.03797 18.5352 9.03797C18.3734 9.03797 18.2422 9.16914 18.2422 9.33094V9.72656C18.2422 9.86656 18.1283 9.98047 17.9883 9.98047H16.7383C16.5983 9.98047 16.4844 9.86656 16.4844 9.72656V2.07031C16.4844 1.93031 16.5983 1.81641 16.7383 1.81641H17.9883C18.1283 1.81641 18.2422 1.93031 18.2422 2.07031V8.06641C18.2422 8.2282 18.3734 8.35938 18.5352 8.35938C18.697 8.35938 18.8281 8.2282 18.8281 8.06641V7.75391H19.3164C19.6933 7.75391 20 7.44723 20 7.07031V4.72656C20 4.34965 19.6933 4.04297 19.3164 4.04297ZM0.683594 7.16797C0.629766 7.16797 0.585938 7.12414 0.585938 7.07031V4.72656C0.585938 4.67273 0.629766 4.62891 0.683594 4.62891H1.17188V7.16797H0.683594ZM6.79688 10.6445C6.79688 10.9568 6.54277 11.2109 6.23047 11.2109H4.66797C4.35566 11.2109 4.10156 10.9568 4.10156 10.6445V1.15234C4.10156 0.840039 4.35566 0.585938 4.66797 0.585938H6.23047C6.54277 0.585938 6.79688 0.840039 6.79688 1.15234V10.6445ZM15.8984 10.6445C15.8984 10.9568 15.6443 11.2109 15.332 11.2109H13.7695C13.4572 11.2109 13.2031 10.9568 13.2031 10.6445V1.15234C13.2031 0.840039 13.4572 0.585938 13.7695 0.585938H15.332C15.6443 0.585938 15.8984 0.840039 15.8984 1.15234V10.6445ZM19.4141 7.07031C19.4141 7.12414 19.3702 7.16797 19.3164 7.16797H18.8281V4.62891H19.3164C19.3702 4.62891 19.4141 4.67273 19.4141 4.72656V7.07031Z" fill="#0B9FEE"/>
</svg>
