<svg width="206" height="272" viewBox="0 0 206 272" fill="none" xmlns="http://www.w3.org/2000/svg">
<path d="M100.574 59.5887L101.869 59.7675C108.399 60.6759 113.964 65.039 116.396 71.1474L149.026 153.203C149.791 155.119 149.763 157.222 148.94 159.125C148.118 161.028 146.616 162.487 144.692 163.252C143.776 163.617 142.811 163.803 141.838 163.803C138.648 163.803 135.822 161.886 134.649 158.925L104.923 84.1652L99.4726 85.8389C99.5799 86.3325 110.316 135.228 106.64 150.542C106.268 152.101 102.934 156.836 100.059 160.327L99.4082 161.121V162.143V260.707C99.4082 264.97 95.9392 268.439 91.6762 268.439C87.4132 268.439 83.9442 264.97 83.9442 260.707V162.143V159.282H81.0831H71.52H68.659V162.143V260.707C68.659 264.97 65.1899 268.439 60.927 268.439C56.664 268.439 53.1949 264.97 53.1949 260.707V162.143V161.113L52.5441 160.319C49.6758 156.829 46.3427 152.101 45.9636 150.535C42.2657 135.142 53.0161 85.982 53.1306 85.4884L47.6803 83.8147L17.8108 158.918C16.6306 161.879 13.8125 163.796 10.6224 163.796C9.64247 163.796 8.68402 163.61 7.76848 163.245C5.85157 162.48 4.34236 161.013 3.51981 159.118C2.69725 157.222 2.6758 155.119 3.43398 153.195L36.0644 71.1402C38.5106 64.9818 44.1254 60.6115 50.713 59.7389L51.9432 59.5744H100.574V59.5887ZM102.262 56.7276H50.3124V56.9136C42.9524 57.8864 36.3219 62.7073 33.3821 70.096L0.751737 152.151C-1.40836 157.587 1.24525 163.753 6.68127 165.913C7.96874 166.421 9.29199 166.664 10.5938 166.664C14.8067 166.664 18.7907 164.132 20.443 159.983L50.3124 84.8805C50.3124 84.8805 39.2616 134.999 43.1598 151.214C43.9251 154.39 50.3124 162.143 50.3124 162.143V260.707C50.3124 266.558 55.0546 271.3 60.9055 271.3C66.7564 271.3 71.4986 266.558 71.4986 260.707V162.143H81.0617V260.707C81.0617 266.558 85.8039 271.3 91.6548 271.3C97.5056 271.3 102.248 266.558 102.248 260.707V162.143C102.248 162.143 108.635 154.39 109.4 151.214C113.277 135.078 102.248 85.2238 102.248 85.2238L131.974 159.983C133.627 164.139 137.611 166.664 141.823 166.664C143.125 166.664 144.448 166.421 145.736 165.913C151.172 163.753 153.833 157.587 151.665 152.151L119.057 70.096C116.138 62.7502 109.572 57.9507 102.269 56.9351V56.7276H102.262Z" fill="#505050"/>
<path d="M78.1934 2.86103C89.888 2.86103 99.401 12.3741 99.401 24.0686C99.401 35.7632 89.888 45.2762 78.1934 45.2762C66.4988 45.2762 56.9858 35.7632 56.9858 24.0686C56.9858 12.3741 66.506 2.86103 78.1934 2.86103ZM78.1934 -3.05176e-05C64.9038 -3.05176e-05 54.1248 10.7719 54.1248 24.0686C54.1248 37.3654 64.8966 48.1373 78.1934 48.1373C91.4902 48.1373 102.262 37.3654 102.262 24.0686C102.262 10.7719 91.4902 -3.05176e-05 78.1934 -3.05176e-05Z" fill="#505050"/>
<path d="M95.12 87.67H82.53C81.69 87.67 81 86.99 81 86.14C81 85.29 81.69 84.61 82.53 84.61H95.11V87.67H95.12Z" fill="black"/>
<path d="M131.288 47.1318L93.0193 85.4001L95.1901 87.5709L133.458 49.3026L131.288 47.1318Z" fill="black"/>
<path d="M145.55 47.04H131.43V50.11H145.55V47.04Z" fill="black"/>
<path d="M166.85 25C154.41 25 144.33 35.08 144.33 47.53C144.33 59.98 154.41 70.06 166.86 70.06C179.31 70.06 189.39 59.98 189.39 47.53C189.39 35.08 179.29 25 166.85 25ZM166.85 68.78C155.11 68.78 145.59 59.26 145.59 47.52C145.59 35.78 155.11 26.27 166.85 26.27C178.59 26.27 188.11 35.79 188.11 47.53C188.11 59.27 178.59 68.78 166.85 68.78Z" fill="black"/>
<path d="M160.041 62.9549C159.706 62.9508 159.373 62.9108 159.048 62.8355C158.435 62.6932 157.84 62.4823 157.275 62.2068C157.17 62.1555 157.081 62.0759 157.019 61.9771C156.957 61.8783 156.924 61.7641 156.923 61.6473V54.7321C156.923 54.5654 156.989 54.4055 157.107 54.2876C157.225 54.1697 157.385 54.1034 157.551 54.1034C157.718 54.1034 157.878 54.1697 157.996 54.2876C158.114 54.4055 158.18 54.5654 158.18 54.7321V61.2387C159.016 61.5907 160.336 61.9491 160.751 61.465V59.3464C160.751 59.1797 160.817 59.0198 160.935 58.9019C161.053 58.784 161.213 58.7178 161.38 58.7178C161.547 58.7178 161.707 58.784 161.824 58.9019C161.942 59.0198 162.009 59.1797 162.009 59.3464V61.6473C162.01 61.7452 161.988 61.8421 161.946 61.9302C161.765 62.27 161.487 62.5487 161.148 62.7311C160.809 62.9134 160.424 62.9913 160.041 62.9549V62.9549Z" fill="#0B9FEE"/>
<path d="M168.93 66.1987C168.634 66.2043 168.339 66.1618 168.056 66.073C165.542 65.2306 157.866 56.7751 153.17 48.9484C151.799 46.6726 151.447 44.4723 152.126 42.4166C153.383 38.5378 157.872 36.6392 158.061 36.5575H158.105C161.927 35.2688 165.07 38.3241 166.327 40.3546C168.421 40.4678 178.85 41.5491 178.85 51.6704C178.85 59.5601 174.821 63.3132 173.086 64.5642C171.894 65.5108 170.447 66.08 168.93 66.1987ZM158.526 37.7268C158.218 37.8651 154.37 39.6128 153.314 42.819C152.761 44.51 153.075 46.352 154.245 48.3008C158.972 56.1842 166.447 64.2122 168.452 64.8785C169.024 65.0671 170.527 64.8785 172.344 63.5584C173.922 62.4268 177.587 58.9943 177.587 51.6893C177.587 41.7125 166.434 41.6308 165.957 41.6308C165.846 41.6295 165.738 41.5992 165.643 41.5429C165.548 41.4866 165.47 41.4064 165.416 41.3102C165.296 41.0839 162.555 36.4066 158.526 37.7268Z" fill="#0B9FEE"/>
<path d="M162.493 38.1733H162.436C162.271 38.1589 162.119 38.0802 162.012 37.9543C161.905 37.8284 161.852 37.6654 161.864 37.5006C161.864 37.2743 162.354 32.0187 166.604 31.17C170.621 30.3654 174.544 32.6725 174.707 32.7731C174.791 32.8074 174.865 32.859 174.927 32.9246C174.988 32.9902 175.035 33.0682 175.064 33.1534C175.092 33.2386 175.102 33.3289 175.093 33.4183C175.084 33.5077 175.056 33.5941 175.011 33.6717C174.965 33.7493 174.904 33.8162 174.83 33.868C174.757 33.9198 174.673 33.9553 174.585 33.972C174.497 33.9887 174.406 33.9863 174.318 33.965C174.231 33.9436 174.149 33.9037 174.079 33.8481C174.041 33.8481 170.401 31.6918 166.868 32.3959C163.543 33.0623 163.14 37.5509 163.134 37.5949C163.121 37.755 163.048 37.9041 162.928 38.0116C162.809 38.1192 162.653 38.177 162.493 38.1733V38.1733Z" fill="#0B9FEE"/>
<path d="M166.535 41.6245C166.448 41.6232 166.362 41.604 166.283 41.5679C166.208 41.5346 166.14 41.4866 166.083 41.4268C166.026 41.367 165.981 41.2966 165.951 41.2195C165.921 41.1424 165.907 41.0602 165.909 40.9776C165.911 40.895 165.929 40.8136 165.963 40.7381L167.585 37.0479L166.868 31.8678C166.845 31.701 166.889 31.5319 166.99 31.3975C167.091 31.2631 167.242 31.1744 167.409 31.1511C167.575 31.1277 167.745 31.1716 167.879 31.273C168.013 31.3744 168.102 31.525 168.125 31.6917L168.892 37.0479C168.909 37.1656 168.891 37.2855 168.842 37.3937L167.126 41.2473C167.076 41.3618 166.993 41.4588 166.888 41.5259C166.783 41.5931 166.66 41.6274 166.535 41.6245Z" fill="#0B9FEE"/>
<path d="M171.074 42.5424C170.977 42.5452 170.881 42.5256 170.793 42.4851C170.704 42.4445 170.627 42.3841 170.566 42.3086C170.505 42.2332 170.463 42.1446 170.442 42.0499C170.421 41.9552 170.422 41.857 170.445 41.7628C171.602 37.0668 176.669 35.4763 178.329 35.0991V33.7852C177.128 33.672 174.041 34.4893 171.52 35.4323C171.44 35.4572 171.355 35.4657 171.271 35.4572C171.187 35.4488 171.106 35.4236 171.032 35.3831C170.958 35.3427 170.893 35.2878 170.841 35.2217C170.789 35.1556 170.75 35.0797 170.728 34.9985L169.942 32.0249C169.921 31.9449 169.917 31.8615 169.928 31.7795C169.94 31.6976 169.967 31.6188 170.009 31.5475C170.051 31.4762 170.107 31.414 170.173 31.3643C170.239 31.3146 170.315 31.2785 170.395 31.258C170.475 31.2372 170.558 31.2324 170.64 31.2439C170.722 31.2555 170.801 31.283 170.872 31.3251C170.944 31.3671 171.006 31.4228 171.056 31.489C171.105 31.5551 171.141 31.6305 171.162 31.7106L171.753 34.0178C173.57 33.3891 177.8 32.0187 179.259 32.7605C179.364 32.8132 179.451 32.8941 179.513 32.9941C179.574 33.0941 179.606 33.2091 179.605 33.3263V35.6209C179.607 35.7706 179.556 35.9163 179.46 36.0315C179.364 36.1468 179.231 36.2241 179.083 36.2495C179.02 36.2495 172.847 37.3685 171.684 42.0835C171.646 42.2163 171.567 42.3331 171.456 42.416C171.346 42.499 171.212 42.5434 171.074 42.5424Z" fill="#0B9FEE"/>
<path d="M158.299 37.7708C158.133 37.7708 157.973 37.7046 157.855 37.5867C157.737 37.4688 157.671 37.3089 157.671 37.1422V31.7797C157.671 31.613 157.737 31.4531 157.855 31.3352C157.973 31.2173 158.133 31.1511 158.299 31.1511H163.662C163.829 31.1511 163.989 31.2173 164.106 31.3352C164.224 31.4531 164.291 31.613 164.291 31.7797V34.0052C164.291 34.1719 164.224 34.3318 164.106 34.4497C163.989 34.5676 163.829 34.6338 163.662 34.6338C163.495 34.6338 163.335 34.5676 163.217 34.4497C163.099 34.3318 163.033 34.1719 163.033 34.0052V32.4084H158.928V37.1422C158.928 37.3089 158.862 37.4688 158.744 37.5867C158.626 37.7046 158.466 37.7708 158.299 37.7708V37.7708Z" fill="#0B9FEE"/>
<path d="M154.873 51.111C154.723 51.1129 154.576 51.0607 154.461 50.9638C154.345 50.8668 154.269 50.7317 154.245 50.5829C154.245 50.4509 153.817 47.4396 158.061 45.7423C161.411 44.3969 163.253 39.4557 163.253 38.6321C163.238 38.4855 163.274 38.3382 163.356 38.2157C163.439 38.0933 163.561 38.0037 163.703 37.9625C163.844 37.9213 163.996 37.9312 164.131 37.9904C164.266 38.0496 164.376 38.1544 164.441 38.2864C164.793 39.2608 162.555 45.2896 158.507 46.9116C155.232 48.2255 155.458 50.3126 155.47 50.4069C155.493 50.5672 155.452 50.7299 155.357 50.8611C155.262 50.9922 155.12 51.0818 154.961 51.111H154.873Z" fill="#0B9FEE"/>
<path d="M95.12 140H82.53C81.69 140 81 140.69 81 141.53C81 142.38 81.69 143.06 82.53 143.06H95.11V140H95.12Z" fill="black"/>
<path d="M133.461 178.368L95.1925 140.1L93.0217 142.27L131.29 180.539L133.461 178.368Z" fill="black"/>
<path d="M145.55 177.56H131.43V180.63H145.55V177.56Z" fill="black"/>
<path d="M166.85 155.52C154.41 155.52 144.32 165.6 144.32 178.05C144.32 190.5 154.4 200.58 166.85 200.58C179.3 200.58 189.38 190.5 189.38 178.05C189.38 165.6 179.29 155.52 166.85 155.52ZM166.85 199.3C155.11 199.3 145.59 189.78 145.59 178.04C145.59 166.3 155.11 156.78 166.85 156.78C178.59 156.78 188.11 166.3 188.11 178.04C188.11 189.78 178.59 199.3 166.85 199.3Z" fill="black"/>
<path d="M151.873 178.678C153.27 180.826 155.096 181.954 157.298 181.954C157.459 181.954 157.567 181.954 157.728 181.954C159.017 181.847 160.092 181.364 160.844 180.45C161.81 179.322 162.294 177.442 160.682 175.938C160.414 175.67 159.984 175.723 159.716 175.992C159.447 176.261 159.501 176.69 159.769 176.959C160.951 178.033 160.199 179.215 159.823 179.645C159.286 180.289 158.588 180.612 157.621 180.665C155.687 180.773 154.183 179.913 152.947 178.033C152.357 177.12 151.98 176.046 151.766 174.542C151.712 174.058 151.658 173.575 151.604 173.038C151.604 172.823 151.551 172.608 151.551 172.393C151.604 170.782 151.766 169.546 152.41 168.418C153.699 166.216 155.418 165.249 157.943 165.356C158.856 165.41 159.554 165.571 160.092 165.947C161.112 166.592 161.649 167.612 161.649 169.009C161.649 169.439 161.596 169.815 161.434 170.137C161.273 170.459 161.434 170.889 161.757 171.05C162.079 171.211 162.509 171.05 162.67 170.728C162.885 170.191 163.046 169.654 162.992 169.009C162.938 167.129 162.24 165.732 160.844 164.819C160.092 164.336 159.178 164.067 157.997 164.013C155.096 163.852 152.84 165.141 151.336 167.72C150.53 169.063 150.315 170.567 150.262 172.393V172.447V172.501C150.262 172.715 150.315 172.93 150.315 173.145C150.369 173.682 150.423 174.166 150.476 174.703C150.745 176.368 151.175 177.604 151.873 178.678Z" fill="#0B9FEE"/>
<path d="M162.724 185.714C162.186 188.4 161.972 190.871 162.025 193.288C162.025 193.664 162.348 193.933 162.67 193.933C163.046 193.933 163.314 193.611 163.314 193.235C163.261 190.925 163.476 188.561 164.013 185.983V185.876C164.496 183.458 164.98 180.88 164.604 178.355C164.174 175.455 162.455 173.199 159.877 172.124C160.038 171.265 159.93 170.298 159.608 169.277C159.501 168.901 159.125 168.74 158.749 168.848C158.373 168.955 158.212 169.331 158.319 169.707C158.695 170.889 158.641 171.963 158.265 172.769C157.889 173.575 157.137 174.219 155.902 174.756C155.579 174.918 155.418 175.294 155.579 175.616C155.687 175.884 155.955 175.992 156.17 175.992C156.278 175.992 156.331 175.992 156.439 175.938C157.943 175.294 158.91 174.434 159.393 173.36C161.434 174.273 162.831 176.153 163.207 178.517C163.583 180.826 163.1 183.244 162.616 185.553L162.724 185.714Z" fill="#0B9FEE"/>
<path d="M183.135 167.72C181.631 165.142 179.375 163.906 176.367 164.014C175.186 164.067 174.272 164.336 173.52 164.819C172.124 165.732 171.372 167.129 171.372 169.009C171.372 169.654 171.479 170.191 171.694 170.728C171.855 171.05 172.231 171.211 172.607 171.05C172.929 170.889 173.091 170.513 172.929 170.137C172.768 169.815 172.715 169.439 172.715 169.009C172.768 167.613 173.252 166.592 174.272 165.947C174.81 165.571 175.508 165.41 176.421 165.356C178.946 165.249 180.718 166.216 181.954 168.418C182.598 169.546 182.759 170.835 182.813 172.393C182.813 172.608 182.759 172.823 182.759 173.038C182.706 173.575 182.706 174.058 182.598 174.488C182.383 175.992 182.007 177.066 181.417 177.98C180.181 179.86 178.677 180.719 176.743 180.612C175.776 180.558 175.078 180.236 174.541 179.591C174.165 179.161 173.413 177.98 174.595 176.905C174.863 176.637 174.863 176.207 174.648 175.938C174.38 175.67 173.95 175.67 173.681 175.885C172.016 177.442 172.553 179.269 173.52 180.397C174.272 181.31 175.347 181.793 176.636 181.901C176.797 181.901 176.904 181.901 177.066 181.901C179.268 181.901 181.094 180.827 182.491 178.624C183.189 177.55 183.619 176.261 183.887 174.596C183.941 174.058 183.995 173.575 184.049 173.038C184.049 172.823 184.102 172.608 184.102 172.393V172.339V172.286C184.156 170.567 183.941 169.063 183.135 167.72Z" fill="#0B9FEE"/>
<path d="M169.814 178.302C169.438 180.773 169.921 183.136 170.351 185.5L170.459 185.983C170.942 188.508 171.157 190.871 171.103 193.235C171.103 193.611 171.372 193.933 171.748 193.933C172.124 193.933 172.392 193.664 172.392 193.288C172.446 190.818 172.231 188.347 171.694 185.768L171.587 185.285C171.157 183.082 170.673 180.773 171.049 178.57C171.425 176.207 172.822 174.327 174.863 173.414C175.4 174.488 176.367 175.347 177.818 175.992C177.925 176.046 177.979 176.046 178.086 176.046C178.355 176.046 178.57 175.885 178.677 175.67C178.838 175.347 178.677 174.918 178.355 174.81C177.119 174.273 176.367 173.629 175.991 172.823C175.615 171.963 175.562 170.943 175.938 169.761C176.045 169.385 175.83 169.009 175.508 168.902C175.132 168.794 174.756 169.009 174.648 169.331C174.326 170.352 174.272 171.319 174.38 172.178C171.963 173.145 170.297 175.401 169.814 178.302Z" fill="#0B9FEE"/>
<path d="M161.88 116.11H65.53C64.69 116.11 64 115.42 64 114.58C64 113.73 64.69 113.05 65.53 113.05H161.87V116.11H161.88Z" fill="black"/>
<path d="M183.18 91C170.74 91 160.65 101.08 160.65 113.53C160.65 125.98 170.73 136.06 183.18 136.06C195.63 136.06 205.71 125.98 205.71 113.53C205.71 101.08 195.62 91 183.18 91ZM183.18 134.78C171.44 134.78 161.92 125.26 161.92 113.52C161.92 101.78 171.44 92.26 183.18 92.26C194.92 92.26 204.44 101.78 204.44 113.52C204.44 125.26 194.92 134.78 183.18 134.78Z" fill="black"/>
<path d="M188.333 100C186.045 100 183.639 101.248 182.441 103.9H181.667C180.197 103.9 179 102.734 179 101.3C179 101.143 178.941 100.99 178.835 100.872C178.755 100.783 178.004 100 176.333 100C174.663 100 173.911 100.783 173.832 100.872C173.725 100.99 173.667 101.143 173.667 101.3C173.667 105.601 177.255 109.1 181.667 109.1H181.928C182.193 109.813 182.647 110.453 183.285 110.915C183.138 111.44 183.064 111.963 183.064 112.473C183.064 113.262 183.225 114.035 183.545 114.777C182.72 115.236 182.103 115.999 181.832 116.901C179.876 116.922 178.37 117.321 177.432 118.027C176.67 117.59 175.039 116.9 172.333 116.9C168.993 116.9 167 120.059 167 125.35C167 125.709 167.298 126 167.667 126H170.333C170.702 126 171 125.709 171 125.35C171 122.493 171.641 122.1 172.333 122.1C172.833 122.1 172.93 122.219 173.161 122.508C173.448 122.863 173.88 123.4 175 123.4H176.762C177.537 123.994 180.438 126 184.333 126C189.406 126 199 123.283 199 113C199 102.335 191.301 100 188.333 100ZM181.667 107.8C178.096 107.8 175.172 105.049 175.008 101.607C175.225 101.477 175.648 101.3 176.333 101.3C177.044 101.3 177.473 101.491 177.68 101.617C177.846 103.62 179.57 105.2 181.667 105.2H181.982C181.782 105.976 181.667 106.839 181.667 107.8ZM184.333 124.7C180.371 124.7 177.466 122.284 177.438 122.259C177.316 122.157 177.16 122.1 177 122.1H175C174.529 122.1 174.436 121.984 174.211 121.704C173.921 121.344 173.482 120.8 172.333 120.8C170.033 120.8 169.716 123.174 169.673 124.7H168.346C168.432 122.574 169.016 118.2 172.333 118.2C174.549 118.2 175.912 118.709 176.573 119.049C176.415 119.382 176.333 119.75 176.333 120.15C176.333 120.509 176.632 120.8 177 120.8C177.369 120.8 177.667 120.509 177.667 120.15C177.667 119.833 177.775 119.562 177.968 119.33C177.979 119.319 177.991 119.307 178.003 119.294C178.017 119.278 178.031 119.261 178.044 119.243C178.77 118.489 180.426 118.2 182 118.2C182.054 118.2 182.106 118.206 182.158 118.21L182.339 118.223C182.679 118.249 182.991 117.988 183.031 117.65C183.141 116.746 183.775 115.987 184.647 115.717C184.837 115.658 184.991 115.519 185.065 115.338C185.138 115.158 185.125 114.954 185.029 114.783C184.61 114.045 184.397 113.268 184.397 112.473C184.397 111.944 184.498 111.416 184.702 110.857C184.813 110.556 184.683 110.222 184.395 110.068C183.534 109.608 183 108.739 183 107.8C183 103.334 185.764 101.3 188.333 101.3C190.93 101.3 197.667 103.402 197.667 113C197.667 122.255 188.945 124.7 184.333 124.7Z" fill="#0B9FEE"/>
</svg>
