<svg width="34" height="50" viewBox="0 0 34 50" fill="none" xmlns="http://www.w3.org/2000/svg">
<path d="M15.136 8.78025V10.5714H14.1415C13.8997 9.8654 13.4707 9.2497 12.9126 8.78025H15.136ZM16.4085 7.51636H7.39868V11.8154C7.44958 10.2969 8.70216 9.07998 10.2438 9.07998C11.7927 9.07998 13.0489 10.3078 13.0907 11.8353H16.4103V7.51636H16.4085Z" fill="black"/>
<path d="M29.5342 1.7639C31.2031 1.7639 32.5611 3.11265 32.5611 4.77016V14.5834C32.5611 16.2409 31.2031 17.5897 29.5342 17.5897H19.6536C17.9847 17.5897 16.6266 16.2409 16.6266 14.5834V4.77016C16.6266 3.11265 17.9847 1.7639 19.6536 1.7639H29.5342ZM29.5342 0.5H19.6536C17.2793 0.5 15.3541 2.41209 15.3541 4.77016V14.5834C15.3541 16.9415 17.2793 18.8536 19.6536 18.8536H29.5342C31.9085 18.8536 33.8337 16.9415 33.8337 14.5834V4.77016C33.8337 2.41209 31.9085 0.5 29.5342 0.5Z" fill="black"/>
<path d="M28.6688 3.16502C29.2579 3.16502 29.7378 3.64169 29.7378 4.22669V15.1251C29.7378 15.7101 29.2579 16.1868 28.6688 16.1868H25.6528C25.0638 16.1868 24.5839 15.7101 24.5839 15.1251V4.2285C24.5839 3.64349 25.0638 3.16683 25.6528 3.16683H28.6688V3.16502ZM28.6688 1.90112H25.6528C24.3602 1.90112 23.3113 2.94293 23.3113 4.22669V15.1251C23.3113 16.4088 24.3602 17.4507 25.6528 17.4507H28.6688C29.9614 17.4507 31.0104 16.4088 31.0104 15.1251V4.2285C31.0104 2.94293 29.9614 1.90112 28.6688 1.90112Z" fill="black"/>
<path d="M19.9736 4.37657C20.3335 4.37657 20.6262 4.66726 20.6262 5.02477C20.6262 5.38227 20.3335 5.67296 19.9736 5.67296C19.6136 5.67296 19.3209 5.38227 19.3209 5.02477C19.3209 4.66726 19.6154 4.37657 19.9736 4.37657ZM19.9736 3.11267C18.9101 3.11267 18.0483 3.96851 18.0483 5.02477C18.0483 6.08102 18.9101 6.93686 19.9736 6.93686C21.0371 6.93686 21.8988 6.08102 21.8988 5.02477C21.8988 3.96851 21.0371 3.11267 19.9736 3.11267Z" fill="black"/>
<path d="M19.9736 13.6661C20.3335 13.6661 20.6262 13.9568 20.6262 14.3143C20.6262 14.6718 20.3335 14.9625 19.9736 14.9625C19.6136 14.9625 19.3209 14.6718 19.3209 14.3143C19.3209 13.9568 19.6154 13.6661 19.9736 13.6661ZM19.9736 12.4022C18.9101 12.4022 18.0483 13.2581 18.0483 14.3143C18.0483 15.3706 18.9101 16.2264 19.9736 16.2264C21.0371 16.2264 21.8988 15.3706 21.8988 14.3143C21.8988 13.2581 21.0371 12.4022 19.9736 12.4022Z" fill="black"/>
<path d="M17.1503 8.46619V10.8875L20.4881 9.67592L17.1503 8.46619Z" fill="black"/>
<path d="M10.0924 10.7507C10.9503 10.7507 11.6503 11.4457 11.6503 12.3015V28.2422V29.5572L12.9694 29.4911C13.025 29.4875 13.0806 29.4875 13.1363 29.4875H13.1452L14.3836 29.4714V28.2368V24.0542C14.3836 23.2002 15.0817 22.5034 15.9414 22.5034C16.8011 22.5034 17.4992 23.1984 17.4992 24.0542V28.235V29.4857H18.7555H19.2724H20.4336L20.5233 28.3333L20.7369 25.6051C20.7997 24.8028 21.4799 24.1757 22.2857 24.1757C22.327 24.1757 22.3683 24.1775 22.4096 24.1811C22.8242 24.2132 23.201 24.4044 23.4721 24.7189C23.7431 25.0333 23.8741 25.4335 23.8418 25.8463L23.6623 28.1386L23.5564 29.4875H24.915H25.0693C25.1501 29.4875 25.2327 29.4893 25.3134 29.4946L26.5356 29.5572L26.6308 28.344L26.6343 28.2869C26.69 27.574 27.2948 27.0147 28.0127 27.0147C28.0486 27.0147 28.0863 27.0165 28.124 27.0183L28.4667 27.0451C28.8365 27.0737 29.1703 27.2434 29.4108 27.5239C29.6513 27.8044 29.7679 28.16 29.7392 28.5281L29.4503 32.1997L29.4305 32.4498L29.5095 32.6874C29.662 33.152 29.741 33.6361 29.7428 34.1239C29.6889 36.0803 29.461 41.4832 29.0554 43.2645C28.6893 44.8725 27.1458 48.1939 24.7086 48.1939H24.6978H24.6871C24.6548 48.1939 21.4602 48.2511 18.1866 48.2511C12.8258 48.2511 11.6341 48.0975 11.3936 48.0492L4.27397 44.7546C4.27038 44.7528 4.26679 44.751 4.2632 44.7492L4.25064 44.7421L4.23807 44.7349C3.97604 44.6027 3.62248 44.3419 3.42507 43.8559L3.41609 43.8363L3.41071 43.8166L1.42755 39.3839L1.42575 39.3785L1.42037 39.3678L1.41678 39.3589L1.40601 39.3356L1.40421 39.3303C1.40063 39.3195 1.39524 39.3088 1.39165 39.2963L1.38806 39.2874L1.38447 39.2785C1.24269 38.9318 1.21936 38.5584 1.31448 38.2011L2.51155 33.7165C2.71077 32.9679 3.39276 32.4462 4.16808 32.4462C4.31704 32.4462 4.466 32.4659 4.61137 32.5052C5.52668 32.7482 6.07227 33.6844 5.82999 34.5956L4.96134 37.8509L4.85366 38.2547L5.01159 38.6424L5.44771 39.7162L5.71692 40.379L6.42763 40.4845C6.61787 40.513 6.81887 40.5488 7.02347 40.5899L8.53462 40.9025V39.366V12.3015C8.53642 11.4457 9.23456 10.7507 10.0924 10.7507ZM10.0924 9.5C8.53821 9.5 7.27832 10.7542 7.27832 12.3015V39.3642C7.05578 39.3178 6.83144 39.2785 6.61069 39.2463L6.17457 38.1725L7.04321 34.9172C7.46497 33.3378 6.52095 31.7173 4.93442 31.2956C4.67778 31.2277 4.42113 31.1956 4.16808 31.1956C2.85255 31.1956 1.65009 32.071 1.29653 33.3949L0.0994558 37.8795C-0.072837 38.5227 -0.0136114 39.173 0.217907 39.7466C0.223291 39.7591 0.225086 39.7734 0.23047 39.7859L0.255596 39.843C0.262775 39.8591 0.269954 39.8752 0.277133 39.8931L2.26029 44.3258C2.54027 45.0137 3.05356 45.539 3.66915 45.8498C3.67633 45.8534 3.6835 45.8588 3.69068 45.8623L10.9198 49.207C11.3685 49.441 14.8395 49.5 18.1866 49.5C21.5086 49.5 24.7086 49.4428 24.7086 49.4428C27.984 49.4428 29.8307 45.5139 30.2812 43.5379C30.8035 41.2384 30.9991 34.1382 30.9991 34.1382C30.9991 33.495 30.8932 32.875 30.703 32.2944L30.9919 28.6227C31.105 27.1755 30.0192 25.9088 28.5637 25.7962L28.2209 25.7694C28.1509 25.7641 28.0809 25.7605 28.0127 25.7605C26.6469 25.7605 25.4911 26.8075 25.3816 28.185L25.378 28.2404C25.2757 28.235 25.1734 28.2332 25.0693 28.2332H24.915L25.0945 25.9409C25.2147 24.3991 24.0571 23.0501 22.5083 22.9304C22.4329 22.925 22.3593 22.9215 22.2857 22.9215C20.832 22.9215 19.5991 24.0364 19.4842 25.505L19.2706 28.2332H18.7537V24.0524C18.7537 22.5052 17.4938 21.2509 15.9396 21.2509C14.3854 21.2509 13.1255 22.5052 13.1255 24.0524V28.235C13.0519 28.2368 12.9765 28.2368 12.903 28.2404V12.3015C12.9066 10.7542 11.6467 9.5 10.0924 9.5Z" fill="black"/>
</svg>
