<svg width="70" height="57" viewBox="0 0 70 57" fill="none" xmlns="http://www.w3.org/2000/svg">
<path d="M68.1656 27.3364H62.3281C64.7549 21.2273 64.4926 16.2818 63.5743 12.9364C62.0002 6.97273 56.6874 0.5 48.8167 0.5C46.7178 0.5 44.619 0.936363 42.4545 1.80909C38.7159 3.33636 36.2235 5.00909 35.1085 5.88182C33.9935 5.00909 31.5667 3.33636 27.7625 1.80909C25.5981 0.936363 23.4336 0.5 21.4003 0.5C13.5296 0.5 8.21688 6.97273 6.64274 12.9364C5.72449 16.5 5.39654 21.8818 8.47924 28.6455H1.39559C0.805287 28.6455 0.346161 29.1546 0.346161 29.8091C0.346161 30.4636 0.805287 30.9727 1.39559 30.9727H9.72544C10.0534 31.6273 10.4469 32.2818 10.906 32.9364C17.7273 43.8455 32.5505 55.7 35.2397 56.4273V56.5C35.2397 56.5 35.3053 56.5 35.3709 56.4273C35.4365 56.4273 35.5021 56.4273 35.5677 56.4273V56.3546C37.8633 55.1182 52.0962 44.9364 59.5734 32.8636C60.2948 31.7727 60.8851 30.6818 61.4099 29.5909H68.2967C68.887 29.5909 69.3462 29.0818 69.3462 28.4273C69.3462 27.7727 68.7559 27.3364 68.1656 27.3364ZM57.6713 31.6273C50.7188 42.9 37.9289 51.9909 35.1741 53.9546C32.3538 51.9909 19.6294 42.8273 12.6114 31.6273C12.4802 31.4091 12.349 31.1909 12.2178 30.9727H21.8595C22.253 30.9727 22.6465 30.7546 22.8433 30.3182L27.2378 20.7182L34.1247 40.2818C34.2559 40.7182 34.715 41.0091 35.1085 41.0091C35.1085 41.0091 35.1085 41.0091 35.1741 41.0091C35.6332 41.0091 36.0268 40.6455 36.158 40.1364L42.1922 17.2273L45.4061 28.7909C45.5372 29.2273 45.8652 29.5182 46.2587 29.5909C46.6523 29.6636 47.0458 29.4455 47.3081 29.0818L49.8661 24.9364L52.0306 29.0091C52.2273 29.3727 52.5553 29.5909 52.9488 29.5909H58.8519C58.4583 30.3182 58.0648 30.9727 57.6713 31.6273ZM60.0325 27.3364H53.6047L50.9156 22.2455C50.7188 21.8818 50.3908 21.6636 49.9973 21.6636C49.6038 21.6636 49.2758 21.8091 49.0791 22.1727L46.849 25.8091L43.2416 12.7909C43.1104 12.2818 42.6513 11.9909 42.1922 11.9182C41.733 11.9182 41.2739 12.2818 41.1427 12.7909L35.0429 36.1364L28.4184 17.3727C28.2872 16.9364 27.8937 16.6455 27.5002 16.6455C27.041 16.6455 26.7131 16.8636 26.5163 17.3L21.3348 28.5727H10.906C8.28247 23.2636 7.56099 18.1727 8.7416 13.5909C10.119 8.42727 14.6446 2.9 21.4659 2.9C23.3024 2.9 25.2045 3.33636 27.1066 4.06364C31.8946 6.02727 34.4526 8.28182 34.5182 8.28182C34.9118 8.64546 35.4365 8.64546 35.83 8.28182C35.83 8.28182 38.388 6.02727 43.2416 4.06364C45.1437 3.26364 47.0458 2.9 48.8823 2.9C55.638 2.9 60.2293 8.42727 61.6066 13.5909C62.7216 17.8091 62.1313 22.4636 60.0325 27.3364Z" fill="black"/>
</svg>
