<svg width="203" height="47" viewBox="0 0 203 47" fill="none" xmlns="http://www.w3.org/2000/svg">
<path d="M5.34616 30.3213H22.6978C22.7484 30.3213 22.797 30.3022 22.834 30.2678L27.3166 26.1012C27.3999 26.0238 27.5308 26.0313 27.6047 26.1176L30.9259 29.9963C31.0363 30.1252 31.247 30.0667 31.2751 29.8993L35.454 4.99847C35.4927 4.76783 35.8281 4.7797 35.8503 5.0125L39.4144 42.2264C39.4361 42.4536 39.7602 42.4729 39.8088 42.25L42.3644 30.5279C42.3889 30.4157 42.5025 30.3471 42.6132 30.3778L45.5732 31.1973C45.6779 31.2263 45.7865 31.1665 45.818 31.0625L48.1737 23.2841C48.2294 23.1003 48.4869 23.093 48.5529 23.2734L51.9585 32.5817C52.0125 32.7291 52.2074 32.7598 52.304 32.6361L54.6732 29.6023C54.7271 29.5332 54.8197 29.5073 54.9017 29.5383L56.9323 30.3084C56.955 30.3169 56.979 30.3213 57.0032 30.3213H84.7579C84.8081 30.3213 84.8564 30.3025 84.8933 30.2686L88.4435 27.0047C88.5167 26.9374 88.6281 26.9341 88.7052 26.9969L92.5235 30.1084C92.6412 30.2043 92.8187 30.1392 92.8465 29.9899L97.2263 6.42965C97.2685 6.20285 97.5976 6.21581 97.6218 6.44523L101.377 42.0553C101.401 42.2791 101.719 42.2994 101.771 42.0805L104.692 29.7549C104.724 29.6224 104.876 29.5594 104.992 29.6306L107.401 31.1094C107.515 31.1793 107.664 31.12 107.699 30.9909L109.768 23.3037C109.819 23.1168 110.079 23.1032 110.148 23.2839L113.725 32.5833C113.781 32.7299 113.977 32.7573 114.071 32.6318L116.349 29.6079C116.403 29.5359 116.498 29.5091 116.582 29.5423L118.512 30.3073C118.535 30.3166 118.56 30.3213 118.585 30.3213H146.339C146.389 30.3213 146.437 30.3029 146.474 30.2697L150.582 26.5538C150.662 26.4812 150.786 26.4856 150.861 26.5637L154.195 30.0436C154.307 30.1605 154.504 30.1028 154.536 29.9439L159.181 6.39892C159.225 6.17329 159.553 6.18881 159.576 6.41765L163.158 42.0829C163.18 42.3059 163.496 42.3289 163.551 42.1116L166.651 29.7592C166.685 29.6257 166.84 29.5652 166.955 29.6408L169.178 31.1023C169.289 31.1758 169.44 31.1211 169.479 30.9932L171.814 23.2841C171.869 23.1003 172.127 23.093 172.193 23.2734L175.599 32.5817C175.653 32.7291 175.847 32.7598 175.944 32.6361L178.315 29.6006C178.368 29.5323 178.459 29.5061 178.54 29.5357L180.669 30.3093C180.691 30.3173 180.714 30.3213 180.738 30.3213H197.654" stroke="#70FF00" stroke-linecap="round"/>
<g opacity="0.7" filter="url(#filter0_f_355:194)">
<path d="M5.34616 30.3213H22.6978C22.7484 30.3213 22.797 30.3022 22.834 30.2678L27.3166 26.1012C27.3999 26.0238 27.5308 26.0313 27.6047 26.1176L30.9259 29.9963C31.0363 30.1252 31.247 30.0667 31.2751 29.8993L35.454 4.99847C35.4927 4.76783 35.8281 4.7797 35.8503 5.0125L39.4144 42.2264C39.4361 42.4536 39.7602 42.4729 39.8088 42.25L42.3644 30.5279C42.3889 30.4157 42.5025 30.3471 42.6132 30.3778L45.5732 31.1973C45.6779 31.2263 45.7865 31.1665 45.818 31.0625L48.1737 23.2841C48.2294 23.1003 48.4869 23.093 48.5529 23.2734L51.9585 32.5817C52.0125 32.7291 52.2074 32.7598 52.304 32.6361L54.6732 29.6023C54.7271 29.5332 54.8197 29.5073 54.9017 29.5383L56.9323 30.3084C56.955 30.3169 56.979 30.3213 57.0032 30.3213H84.7579C84.8081 30.3213 84.8564 30.3025 84.8933 30.2686L88.4435 27.0047C88.5167 26.9374 88.6281 26.9341 88.7052 26.9969L92.5235 30.1084C92.6412 30.2043 92.8187 30.1392 92.8465 29.9899L97.2263 6.42965C97.2685 6.20285 97.5976 6.21581 97.6218 6.44523L101.377 42.0553C101.401 42.2791 101.719 42.2994 101.771 42.0805L104.692 29.7549C104.724 29.6224 104.876 29.5594 104.992 29.6306L107.401 31.1094C107.515 31.1793 107.664 31.12 107.699 30.9909L109.768 23.3037C109.819 23.1168 110.079 23.1032 110.148 23.2839L113.725 32.5833C113.781 32.7299 113.977 32.7573 114.071 32.6318L116.349 29.6079C116.403 29.5359 116.498 29.5091 116.582 29.5423L118.512 30.3073C118.535 30.3166 118.56 30.3213 118.585 30.3213H146.339C146.389 30.3213 146.437 30.3029 146.474 30.2697L150.582 26.5538C150.662 26.4812 150.786 26.4856 150.861 26.5637L154.195 30.0436C154.307 30.1605 154.504 30.1028 154.536 29.9439L159.181 6.39892C159.225 6.17329 159.553 6.18881 159.576 6.41765L163.158 42.0829C163.18 42.3059 163.496 42.3289 163.551 42.1116L166.651 29.7592C166.685 29.6257 166.84 29.5652 166.955 29.6408L169.178 31.1023C169.289 31.1758 169.44 31.1211 169.479 30.9932L171.814 23.2841C171.869 23.1003 172.127 23.093 172.193 23.2734L175.599 32.5817C175.653 32.7291 175.847 32.7598 175.944 32.6361L178.315 29.6006C178.368 29.5323 178.459 29.5061 178.54 29.5357L180.669 30.3093C180.691 30.3173 180.714 30.3213 180.738 30.3213H197.654" stroke="#70FF00" stroke-linecap="round"/>
</g>
<defs>
<filter id="filter0_f_355:194" x="0.846161" y="0.331543" width="201.308" height="46.5759" filterUnits="userSpaceOnUse" color-interpolation-filters="sRGB">
<feFlood flood-opacity="0" result="BackgroundImageFix"/>
<feBlend mode="normal" in="SourceGraphic" in2="BackgroundImageFix" result="shape"/>
<feGaussianBlur stdDeviation="2" result="effect1_foregroundBlur_355:194"/>
</filter>
</defs>
</svg>
