<svg width="15" height="15" viewBox="0 0 15 15" fill="none" xmlns="http://www.w3.org/2000/svg">
<path d="M14.5315 0H7.50453V0.936934H13.4025L8.44146 5.87926C7.42124 5.03371 6.1145 4.61365 4.79267 4.70634C3.47084 4.79903 2.23552 5.39735 1.34328 6.37701C0.451051 7.35667 -0.0295149 8.64239 0.00140459 9.9671C0.0323241 11.2918 0.572352 12.5537 1.50932 13.4907C2.44629 14.4276 3.70818 14.9677 5.0329 14.9986C6.35761 15.0295 7.64333 14.5489 8.62299 13.6567C9.60265 12.7645 10.201 11.5292 10.2937 10.2073C10.3863 8.8855 9.96629 7.57877 9.12074 6.55854L14.0631 1.59747V6.55854H15V0.468467C15 0.344222 14.9506 0.225066 14.8628 0.137211C14.7749 0.0493562 14.6558 0 14.5315 0V0ZM9.37839 9.83781C9.37839 10.6717 9.13112 11.4869 8.66784 12.1802C8.20455 12.8736 7.54607 13.414 6.77566 13.7331C6.00525 14.0522 5.15751 14.1357 4.33965 13.973C3.52178 13.8103 2.77053 13.4088 2.18088 12.8191C1.59123 12.2295 1.18968 11.4782 1.027 10.6604C0.864313 9.84249 0.947808 8.99475 1.26692 8.22434C1.58604 7.45393 2.12644 6.79545 2.81979 6.33216C3.51314 5.86888 4.3283 5.62161 5.16219 5.62161C5.71587 5.62161 6.26413 5.73066 6.77566 5.94255C7.28719 6.15443 7.75199 6.46499 8.1435 6.8565C8.53501 7.24801 8.84557 7.71281 9.05746 8.22434C9.26934 8.73587 9.37839 9.28413 9.37839 9.83781Z" fill="#0B9FEE"/>
</svg>
